<?xml version="1.0" encoding="utf-8"?>
<!-- Generator: Adobe Illustrator 16.0.0, SVG Export Plug-In . SVG Version: 6.00 Build 0)  -->
<!DOCTYPE svg PUBLIC "-//W3C//DTD SVG 1.1//EN" "http://www.w3.org/Graphics/SVG/1.1/DTD/svg11.dtd">
<svg version="1.1" id="Слой_1" xmlns="http://www.w3.org/2000/svg" xmlns:xlink="http://www.w3.org/1999/xlink" x="0px" y="0px"
	 width="469.5px" height="467.5px" viewBox="0 0 469.5 467.5" enable-background="new 0 0 469.5 467.5" xml:space="preserve">
<g id="Слой_1_1_">
	<path d="M402.009,33.479v-20h-34.96c-1.619-8.899-1.689-8.95-8.98-7.28c-0.209,2.171-0.42,4.431-0.709,7.431H321.54v19.5h-47.17
		v-19.91h-35.621c-0.229-2.771-0.431-5.05-0.619-7.34h-8.02c-0.26,2.67-0.48,4.931-0.74,7.7h-35.78v19.59h-47.33V13.448h-35.44
		c-0.31-2.75-0.58-5.149-0.84-7.46c-7.33-1.101-7.33-1.101-8.9,7.631H66.13c0,5.689-0.18,10.67,0.06,15.619
		c0.17,3.511-1.07,4.57-4.56,4.53c-15.16-0.17-30.33-0.08-45.49-0.091H10.1v256.3h35.12v166.671h20.67V289.978h151.88l182.521-0.31
		v166.649h20.67V289.628l36.88-0.062V33.479H402.009z M368.469,17.968c9.6-0.149,19.211-0.08,29.82-0.08
		c-0.25,5.37-0.49,10.41-0.723,15.45c-0.817,0.05-1.64,0.09-2.447,0.141c-0.461-3.71-0.922-7.42-1.49-12.061
		c-8.25,0-16.66,0.08-25.063-0.08c-1.33-0.021-2.64-1.08-3.959-1.66C365.889,19.078,367.169,17.979,368.469,17.968z M326.509,21.979
		c-0.21-2.311,0.22-4.189,3.421-4.141c8.959,0.141,17.93-0.021,26.889,0.109c0.951,0.011,1.881,1.12,2.83,1.721
		c-0.959,0.59-1.897,1.67-2.857,1.681c-7.802,0.149-15.609,0.079-23.41,0.109c-0.96,0-1.92,0.189-3.689,0.38v11.271
		c-0.621,0.109-1.229,0.221-1.851,0.33C324.857,30.239,326.85,25.809,326.509,21.979z M239.339,17.948
		c6.489-0.159,12.989-0.09,19.479-0.09h10.642v16.729c-4.44-4.239-2-8.939-3.771-13.149h-22.551c-1.33,0-2.709,0.199-3.979-0.08
		c-0.932-0.189-1.729-1.01-2.58-1.561C237.498,19.158,238.408,17.979,239.339,17.948z M198.479,17.888c10.6,0,20.42-0.05,30.24,0.08
		c0.98,0.011,1.94,1.08,2.91,1.66c-0.94,0.59-1.87,1.689-2.83,1.71c-6.83,0.149-13.66,0.08-20.49,0.08h-6.59
		c0,3.71,0.09,6.83-0.07,9.939c-0.03,0.681-0.97,1.33-1.49,1.99c-0.56-0.66-1.59-1.301-1.61-1.971
		C198.398,27.088,198.479,22.788,198.479,17.888z M115.299,17.939c8.6-0.2,17.2-0.08,26.01-0.08v15.34
		c-0.72,0.091-1.44,0.181-2.16,0.271c-0.38-3.729-0.75-7.449-1.21-12.029c-7.48,0-15.04,0.13-22.58-0.08
		c-2.17-0.061-4.3-1.08-6.45-1.659C111.039,19.088,113.159,17.989,115.299,17.939z M70.418,17.998h32.98
		c0.19,0.699,0.38,1.399,0.57,2.101c-1.29,0.449-2.58,1.26-3.88,1.279c-8.44,0.109-16.89,0.061-25.78,0.061
		c-0.31,4.29-0.57,8-0.84,11.79C69.958,32.038,69.249,28.168,70.418,17.998z M450.089,281.428H18.119V41.798
		c1.35-0.069,2.47-0.189,3.59-0.189c13.34-0.01,26.67-0.021,40,0.011c2,0.01,4.51-0.771,4.7,2.76c0.03,0.46,2.13,1.16,3.28,1.17
		c24.32,0.07,48.65,0.09,72.97-0.04c1.14,0,2.23-1.529,3.42-2.22c1.13-0.65,2.36-1.61,3.56-1.62c13.67-0.109,27.33-0.08,41-0.05
		c0.98,0,2.76,0.069,2.82,0.369c1.19,5.99,5.97,3.551,9.12,3.58c22.66,0.189,45.319,0.091,67.979-0.069
		c1.16,0,2.291-1.431,3.48-2.12c1.118-0.649,2.3-1.689,3.46-1.7c13.67-0.119,27.33-0.17,41,0.051
		c1.658,0.021,3.29,1.729,4.931,2.659l75.479,1.091c1.49-0.011,2.972-1.841,3.98-3.7h47.199L450.089,281.428L450.089,281.428z"/>
	<path fill="#EC6851" d="M450.089,41.779v239.649H18.119V41.798c1.35-0.069,2.47-0.189,3.59-0.189c13.34-0.01,26.67-0.021,40,0.011
		c2,0.01,4.51-0.771,4.7,2.76c0.03,0.46,2.13,1.16,3.28,1.17c24.32,0.07,48.65,0.09,72.97-0.04c1.14,0,2.23-1.529,3.42-2.22
		c1.13-0.65,2.36-1.61,3.56-1.62c13.67-0.109,27.33-0.08,41-0.05c0.98,0,2.76,0.069,2.82,0.369c1.19,5.99,5.97,3.551,9.12,3.58
		c22.66,0.189,45.319,0.091,67.979-0.069c1.16,0,2.291-1.431,3.48-2.12c1.118-0.649,2.3-1.689,3.46-1.7
		c13.67-0.119,27.33-0.17,41,0.051c1.658,0.021,3.29,1.729,4.931,2.659l75.479,1.091c1.49-0.011,2.972-1.841,3.98-3.7
		L450.089,41.779L450.089,41.779z"/>
</g>
<path fill="#FFFFFF" stroke="#000000" stroke-width="2.6284" stroke-miterlimit="10" d="M99.257,210.114
	c0,0-1.038,10.594-3.451,11.625c-5.859-0.343-31.706,0-31.706,0s16.197-16.884,12.75-44.109c-4.134,25.501-8.27,32.052-12.75,37.909
	c-9.305-0.348-29.981,0.345-29.981,0.345s17.231-9.308,14.129-77.542c0.689-41.008,0-53.415,0-53.415h138.883
	c0,0,6.202,122.687-5.859,141.296c-18.609,0.342-27.225,0-27.225,0s13.096-14.818,7.238-47.902
	c-1.724,25.846-5.514,36.872-7.238,39.974c-14.818-0.341-29.981-0.341-29.981-0.341s11.027-17.578,7.926-44.458
	c-0.689,20.332-5.858,34.115-8.96,36.528c-5.859,0.347-32.74,0-32.74,0s10.339-5.857,13.096-28.259"/>
<g enable-background="new    ">
	<path fill="#EC6851" d="M96.743,131.302v7.08l-4.62,1.199h-0.12v8.399h-11.82v-8.399h-16.62c-1.72,0-3.04-0.63-3.96-1.891
		c-0.92-1.26-1.08-2.688-0.48-4.29l10.02-26.819h12l-8.4,23.221c-0.16,0.44-0.141,0.801,0.06,1.08c0.2,0.28,0.52,0.42,0.96,0.42
		h6.42v-10.2l2.1-6.359h9.72v16.561L96.743,131.302L96.743,131.302z"/>
	<path fill="#EC6851" d="M117.503,105.741c6.639,0,11.259,1.551,13.86,4.649c2.6,3.102,3.9,8.729,3.9,16.89
		c0,8.161-1.3,13.791-3.9,16.892c-2.601,3.1-7.221,4.648-13.86,4.648c-6.6,0-11.201-1.55-13.8-4.648
		c-2.601-3.101-3.9-8.73-3.9-16.892c0-8.16,1.299-13.788,3.9-16.89C106.302,107.292,110.903,105.741,117.503,105.741z
		 M117.443,115.402c-1.36,0-2.34,0.25-2.94,0.75c-0.6,0.501-1.05,1.581-1.35,3.24c-0.3,1.66-0.45,4.29-0.45,7.89
		c0,3.602,0.15,6.23,0.45,7.892c0.3,1.66,0.75,2.74,1.35,3.239c0.6,0.501,1.58,0.75,2.94,0.75c1.44,0,2.469-0.249,3.09-0.75
		c0.62-0.499,1.08-1.579,1.38-3.239c0.3-1.66,0.45-4.29,0.45-7.891s-0.15-6.229-0.45-7.891c-0.3-1.659-0.76-2.739-1.38-3.24
		C119.912,115.652,118.883,115.402,117.443,115.402z"/>
	<path fill="#EC6851" d="M175.822,131.302v7.08l-4.62,1.199h-0.12v8.399h-11.82v-8.399h-16.62c-1.72,0-3.04-0.63-3.96-1.891
		c-0.92-1.26-1.08-2.688-0.48-4.29l10.02-26.819h12l-8.4,23.221c-0.16,0.44-0.141,0.801,0.06,1.08c0.2,0.28,0.52,0.42,0.96,0.42
		h6.42v-10.2l2.1-6.359h9.72v16.561L175.822,131.302L175.822,131.302z"/>
</g>
<g>
	<path d="M248.01,133.952l-8.22-3.6c-3.36-1.479-5.74-3.169-7.14-5.07c-1.4-1.899-2.1-4.37-2.1-7.41c0-4.64,1.26-7.83,3.78-9.57
		c2.52-1.74,6.939-2.61,13.26-2.61c6.039,0,11.06,0.701,15.061,2.1l-0.78,8.34c-4.8-0.08-9.66-0.12-14.58-0.12
		c-1.521,0-2.541,0.1-3.06,0.3c-0.521,0.201-0.78,0.621-0.78,1.26c0,0.561,0.249,1.03,0.75,1.41c0.499,0.381,1.449,0.851,2.85,1.41
		l7.5,3.12c3.399,1.48,5.8,3.18,7.2,5.1c1.399,1.92,2.1,4.42,2.1,7.5c0,4.68-1.221,7.96-3.659,9.84
		c-2.44,1.88-6.861,2.82-13.261,2.82c-5.399,0-10.739-0.681-16.02-2.04l0.78-9.12c7.92,0.201,12.939,0.3,15.06,0.3
		c1.64,0,2.73-0.099,3.27-0.3c0.54-0.2,0.811-0.58,0.811-1.14c0-0.56-0.19-1.02-0.57-1.38
		C249.879,134.732,249.129,134.352,248.01,133.952z"/>
	<path d="M283.71,117.092c6.12,0,10.439,1.19,12.96,3.57c2.52,2.38,3.779,6.49,3.779,12.33c0,5.76-1.26,9.81-3.779,12.15
		c-2.521,2.34-6.84,3.51-12.96,3.51c-6.161,0-10.5-1.17-13.021-3.51c-2.52-2.34-3.78-6.39-3.78-12.15c0-5.84,1.261-9.95,3.78-12.33
		C273.21,118.282,277.549,117.092,283.71,117.092z M283.71,125.612c-1.48,0-2.451,0.46-2.91,1.38c-0.461,0.92-0.69,2.92-0.69,6
		c0,2.96,0.229,4.89,0.69,5.79c0.459,0.9,1.43,1.35,2.91,1.35c1.439,0,2.39-0.45,2.85-1.35c0.459-0.9,0.69-2.83,0.69-5.79
		c0-3.08-0.231-5.08-0.69-6C286.1,126.072,285.149,125.612,283.71,125.612z"/>
	<path d="M329.009,117.092l-1.08,11.52h-3.18c-2.121,0-4.641,0.201-7.561,0.6v18.72h-12.6v-30h9.84l1.14,4.38
		c3.721-3.48,7.62-5.22,11.7-5.22H329.009z"/>
	<path d="M356.129,117.092l-1.08,11.52h-3.18c-2.121,0-4.641,0.201-7.561,0.6v18.72h-12.6v-30h9.84l1.14,4.38
		c3.721-3.48,7.62-5.22,11.7-5.22H356.129z"/>
	<path d="M392.488,117.932l-9.54,29.16c-0.36,1.2-0.801,2.34-1.32,3.42c-0.521,1.08-1.19,2.209-2.01,3.39
		c-0.82,1.179-1.74,2.18-2.76,3c-1.021,0.819-2.23,1.56-3.63,2.22c-1.401,0.66-2.94,1.02-4.62,1.08
		c-1.681,0.06-3.561-0.09-5.641-0.45l-0.84-6.78c2.359-0.48,4.22-1.101,5.58-1.86c1.359-0.76,2.439-1.821,3.24-3.18h-2.04
		c-2.04,0-3.36-0.979-3.96-2.94l-8.88-27.06h13.38l3.54,16.56c0.159,1.08,0.42,2.96,0.779,5.64h0.54c0.28-0.96,0.7-2.84,1.261-5.64
		l3.54-16.56H392.488z"/>
	<path d="M394.911,143.492h0.984c0.64,0,1.083,0.124,1.332,0.372c0.247,0.248,0.38,0.7,0.396,1.356v1.536
		c0,1.136-0.128,2.072-0.384,2.808s-0.664,1.488-1.224,2.256l-1.872-0.6c0.271-0.816,0.424-1.912,0.456-3.288
		c-0.944,0-1.433-0.512-1.465-1.536l0.072-1.176c0.016-0.656,0.145-1.108,0.384-1.356
		C393.831,143.616,394.271,143.492,394.911,143.492z"/>
	<path d="M233.814,169.732l0.408,1.632c0.384-0.543,0.984-1,1.8-1.368c0.815-0.368,1.688-0.552,2.615-0.552
		c1.521,0,2.62,0.544,3.301,1.632c0.68,1.088,1.02,2.688,1.02,4.8c0,2.368-0.36,3.992-1.08,4.872s-1.872,1.32-3.456,1.32
		c-1.552,0-2.775-0.336-3.672-1.008c0.064,1.136,0.088,2.008,0.072,2.616v2.376h-5.04v-16.32H233.814z M234.822,173.5v4.968
		c0.528,0.208,1.056,0.312,1.584,0.312c0.527,0,0.888-0.171,1.08-0.516c0.191-0.344,0.288-1.124,0.288-2.34
		c0-1.216-0.093-1.996-0.276-2.34c-0.185-0.344-0.524-0.516-1.021-0.516C235.95,173.068,235.398,173.212,234.822,173.5z"/>
	<path d="M245.238,173.188l-0.456-3.192c2.176-0.4,4.455-0.6,6.84-0.6c1.775,0,3.096,0.368,3.96,1.104s1.296,2,1.296,3.792v7.44
		h-4.008l-0.456-1.68c-1.057,1.344-2.44,2.016-4.152,2.016c-1.185,0-2.168-0.296-2.952-0.888c-0.784-0.592-1.176-1.432-1.176-2.52
		v-1.2c0-0.96,0.352-1.716,1.056-2.268c0.704-0.552,1.672-0.828,2.904-0.828h3.744v-0.096c-0.017-0.432-0.128-0.74-0.336-0.924
		c-0.208-0.184-0.568-0.276-1.08-0.276C248.662,173.068,246.934,173.108,245.238,173.188z M249.03,177.531v0.384
		c0,0.496,0.336,0.744,1.008,0.744c0.527,0,1.128-0.2,1.8-0.6v-1.272h-1.896C249.334,176.788,249.03,177.036,249.03,177.531z"/>
	<path d="M271.974,171.58l-1.319,0.216c0.128,0.368,0.191,0.832,0.191,1.392c0,1.392-0.46,2.372-1.38,2.94
		c-0.92,0.568-2.516,0.852-4.788,0.852c-0.656,0-1.248-0.024-1.775-0.072c-0.177,0.176-0.208,0.396-0.097,0.66
		c0.112,0.264,0.368,0.404,0.769,0.42l4.368,0.288c1.344,0.096,2.319,0.448,2.928,1.056c0.607,0.608,0.912,1.512,0.912,2.712
		c0,1.632-0.513,2.712-1.536,3.24c-1.024,0.528-2.824,0.792-5.4,0.792c-1.904,0-3.352-0.12-4.344-0.36
		c-0.992-0.24-1.664-0.588-2.016-1.044c-0.353-0.456-0.528-1.124-0.528-2.004c0-0.592,0.136-1.088,0.408-1.488
		c0.271-0.4,0.76-0.752,1.464-1.056c-0.528-0.576-0.716-1.256-0.564-2.04c0.152-0.784,0.564-1.336,1.236-1.656
		c-1.344-0.528-2.016-1.608-2.016-3.24c0-1.376,0.468-2.352,1.403-2.928c0.937-0.576,2.54-0.864,4.813-0.864
		c1.488,0,2.647,0.112,3.479,0.336h4.032L271.974,171.58z M265.206,181.276l-2.136-0.168c-0.272,0.208-0.408,0.472-0.408,0.792
		c0,0.304,0.144,0.508,0.432,0.612s0.849,0.156,1.681,0.156c0.912,0,1.523-0.044,1.836-0.132c0.312-0.088,0.468-0.26,0.468-0.516
		c0-0.272-0.128-0.452-0.384-0.54C266.438,181.392,265.941,181.323,265.206,181.276z M263.479,174.028
		c0.207,0.144,0.607,0.216,1.199,0.216s0.988-0.072,1.188-0.216c0.199-0.144,0.3-0.424,0.3-0.84s-0.101-0.692-0.3-0.828
		c-0.2-0.136-0.597-0.204-1.188-0.204s-0.992,0.068-1.199,0.204c-0.209,0.136-0.313,0.412-0.313,0.828
		S263.27,173.884,263.479,174.028z"/>
	<path d="M281.118,176.836h-3c0.096,0.496,0.292,0.84,0.588,1.032c0.296,0.192,0.764,0.288,1.404,0.288
		c1.567,0,3.191-0.087,4.872-0.264l0.456,3.024c-1.456,0.736-3.417,1.104-5.88,1.104c-2.448,0-4.2-0.508-5.257-1.524
		c-1.056-1.016-1.584-2.572-1.584-4.668c0-2.352,0.513-4.012,1.536-4.98c1.024-0.968,2.784-1.452,5.28-1.452
		c2.208,0,3.796,0.352,4.764,1.056s1.46,1.776,1.477,3.216c0.016,1.136-0.324,1.948-1.021,2.436
		C284.059,176.592,282.846,176.836,281.118,176.836z M278.022,174.46h1.68c0.544,0,0.888-0.052,1.032-0.156
		c0.144-0.104,0.216-0.355,0.216-0.756c0-0.368-0.092-0.612-0.276-0.732c-0.184-0.12-0.516-0.18-0.996-0.18
		c-0.64-0.016-1.067,0.088-1.283,0.312C278.178,173.172,278.054,173.676,278.022,174.46z"/>
	<path d="M296.31,169.732l0.456,1.776c1.52-1.408,3.168-2.112,4.943-2.112c2.368,0,3.553,1.12,3.553,3.36v8.976h-5.04v-7.368
		c0-0.255-0.064-0.44-0.192-0.552s-0.352-0.168-0.672-0.168c-0.672,0-1.328,0.096-1.968,0.288v7.8h-5.04v-12H296.31z"/>
	<path d="M313.564,169.396c2.448,0,4.176,0.476,5.185,1.428c1.008,0.952,1.512,2.596,1.512,4.932c0,2.304-0.504,3.924-1.512,4.86
		c-1.009,0.936-2.736,1.404-5.185,1.404c-2.464,0-4.2-0.468-5.208-1.404c-1.008-0.936-1.512-2.556-1.512-4.86
		c0-2.336,0.504-3.98,1.512-4.932C309.364,169.872,311.101,169.396,313.564,169.396z M313.564,172.803
		c-0.592,0-0.98,0.185-1.164,0.552c-0.184,0.368-0.275,1.168-0.275,2.4c0,1.184,0.092,1.956,0.275,2.316
		c0.184,0.36,0.572,0.54,1.164,0.54c0.576,0,0.956-0.18,1.141-0.54c0.184-0.36,0.275-1.132,0.275-2.316
		c0-1.232-0.092-2.032-0.275-2.4C314.521,172.988,314.141,172.803,313.564,172.803z"/>
	<path d="M328.109,172.756v4.608c0,0.304,0.079,0.524,0.239,0.66c0.16,0.136,0.424,0.204,0.792,0.204h1.272l0.552,3.216
		c-0.992,0.416-2.352,0.624-4.08,0.624c-1.168,0-2.096-0.296-2.784-0.888c-0.688-0.592-1.031-1.416-1.031-2.472v-5.952h-2.04v-2.904
		l2.016-0.096v-3.168h5.064v3.144h2.903v3.024H328.109z"/>
	<path d="M346.541,167.716h-2.112c-0.448,0-0.752,0.092-0.912,0.276c-0.16,0.185-0.239,0.508-0.239,0.972v0.768h2.855v3.024h-2.855
		v8.976h-5.064v-8.976h-2.016v-2.904l2.016-0.12v-1.464c0-2.608,1.472-3.912,4.416-3.912c1.808,0,3.271,0.112,4.392,0.336
		L346.541,167.716z"/>
	<path d="M353.5,169.396c2.448,0,4.176,0.476,5.185,1.428c1.008,0.952,1.512,2.596,1.512,4.932c0,2.304-0.504,3.924-1.512,4.86
		c-1.009,0.936-2.736,1.404-5.185,1.404c-2.464,0-4.2-0.468-5.208-1.404c-1.008-0.936-1.512-2.556-1.512-4.86
		c0-2.336,0.504-3.98,1.512-4.932C349.3,169.872,351.036,169.396,353.5,169.396z M353.5,172.803c-0.592,0-0.98,0.185-1.164,0.552
		c-0.184,0.368-0.275,1.168-0.275,2.4c0,1.184,0.092,1.956,0.275,2.316c0.184,0.36,0.572,0.54,1.164,0.54
		c0.576,0,0.956-0.18,1.141-0.54c0.184-0.36,0.275-1.132,0.275-2.316c0-1.232-0.092-2.032-0.275-2.4
		C354.456,172.988,354.076,172.803,353.5,172.803z"/>
	<path d="M374.548,169.732v12h-3.96l-0.456-1.752c-1.535,1.392-3.136,2.088-4.8,2.088c-2.368,0-3.552-1.12-3.552-3.36v-8.976h5.04
		v7.368c0,0.496,0.296,0.744,0.888,0.744c0.576,0,1.168-0.096,1.776-0.288v-7.824H374.548z"/>
	<path d="M380.572,169.732l0.456,1.776c1.52-1.408,3.168-2.112,4.943-2.112c2.368,0,3.553,1.12,3.553,3.36v8.976h-5.04v-7.368
		c0-0.255-0.064-0.44-0.192-0.552s-0.352-0.168-0.672-0.168c-0.672,0-1.328,0.096-1.968,0.288v7.8h-5.04v-12H380.572z"/>
	<path d="M404.331,164.932v16.8h-4.008l-0.408-1.968c-0.8,1.504-2.271,2.256-4.416,2.256c-1.52,0-2.624-0.544-3.312-1.632
		c-0.688-1.087-1.032-2.688-1.032-4.8c0-2.352,0.364-3.972,1.092-4.86c0.729-0.888,1.885-1.332,3.469-1.332
		c1.535,0,2.76,0.336,3.672,1.008c-0.064-1.12-0.097-1.992-0.097-2.616v-2.856H404.331z M399.291,177.628v-4.632
		c-0.527-0.208-1.048-0.312-1.56-0.312c-0.544,0-0.912,0.172-1.104,0.516c-0.191,0.344-0.287,1.125-0.287,2.34
		c0,1.04,0.092,1.708,0.275,2.004c0.184,0.296,0.532,0.444,1.044,0.444C398.268,177.988,398.812,177.868,399.291,177.628z"/>
	<path d="M411.795,170.668l-0.527,5.616h-3.937l-0.527-5.616v-5.616h4.991V170.668z M408.747,177.292h1.128
		c0.656,0,1.108,0.124,1.356,0.372s0.372,0.7,0.372,1.356v0.984c0,0.656-0.124,1.108-0.372,1.356
		c-0.248,0.249-0.7,0.372-1.356,0.372h-1.128c-0.656,0-1.108-0.124-1.355-0.372c-0.249-0.248-0.372-0.7-0.372-1.356v-0.984
		c0-0.656,0.123-1.108,0.372-1.356C407.639,177.416,408.091,177.292,408.747,177.292z"/>
</g>
</svg>
