<?xml version="1.0" encoding="utf-8"?>
<!-- Generator: Adobe Illustrator 16.0.0, SVG Export Plug-In . SVG Version: 6.00 Build 0)  -->
<!DOCTYPE svg PUBLIC "-//W3C//DTD SVG 1.1//EN" "http://www.w3.org/Graphics/SVG/1.1/DTD/svg11.dtd">
<svg version="1.1" id="Слой_1" xmlns="http://www.w3.org/2000/svg" xmlns:xlink="http://www.w3.org/1999/xlink" x="0px" y="0px"
	 width="469.5px" height="467.5px" viewBox="0 0 469.5 467.5" enable-background="new 0 0 469.5 467.5" xml:space="preserve">
<path d="M402.79,36.228v-20h-34.96c-1.621-8.898-1.691-8.95-8.98-7.28c-0.211,2.172-0.42,4.432-0.711,7.432H322.32v19.5h-47.17
	v-19.91h-35.621c-0.23-2.771-0.43-5.05-0.619-7.34h-8.021c-0.26,2.67-0.48,4.93-0.74,7.7h-35.78v19.59h-47.33V16.198H111.6
	c-0.31-2.75-0.58-5.148-0.84-7.46c-7.33-1.1-7.33-1.1-8.9,7.632H66.91c0,5.688-0.18,10.67,0.06,15.618
	c0.17,3.512-1.07,4.57-4.56,4.53c-15.16-0.17-30.33-0.08-45.49-0.09h-6.04v256.3H46v166.671h20.67V292.728h151.88l182.521-0.311
	v166.649h20.671V292.378l36.881-0.063V36.228H402.79z M369.25,20.718c9.6-0.15,19.209-0.08,29.82-0.08
	c-0.25,5.37-0.49,10.41-0.721,15.45c-0.82,0.05-1.643,0.09-2.449,0.14c-0.461-3.71-0.922-7.42-1.49-12.06
	c-8.25,0-16.66,0.08-25.061-0.08c-1.33-0.021-2.643-1.08-3.961-1.66C366.67,21.828,367.949,20.728,369.25,20.718z M327.289,24.728
	c-0.209-2.31,0.221-4.188,3.42-4.14c8.961,0.14,17.93-0.021,26.891,0.108c0.949,0.012,1.879,1.12,2.83,1.722
	c-0.961,0.59-1.9,1.67-2.859,1.68c-7.801,0.15-15.609,0.08-23.408,0.11c-0.961,0-1.92,0.188-3.691,0.38v11.27
	c-0.617,0.11-1.229,0.222-1.85,0.33C325.639,32.988,327.629,28.558,327.289,24.728z M240.119,20.698
	c6.49-0.158,12.99-0.09,19.48-0.09h10.641v16.73c-4.441-4.24-2-8.94-3.771-13.15H243.92c-1.33,0-2.711,0.2-3.98-0.08
	c-0.93-0.188-1.729-1.01-2.58-1.56C238.279,21.908,239.189,20.728,240.119,20.698z M199.259,20.638c10.6,0,20.42-0.05,30.24,0.08
	c0.98,0.01,1.94,1.08,2.91,1.66c-0.94,0.59-1.87,1.688-2.83,1.71c-6.83,0.148-13.66,0.08-20.49,0.08h-6.59
	c0,3.71,0.09,6.83-0.07,9.938c-0.03,0.682-0.97,1.33-1.49,1.99c-0.56-0.66-1.59-1.3-1.61-1.97
	C199.179,29.838,199.259,25.538,199.259,20.638z M116.08,20.688c8.6-0.2,17.2-0.08,26.01-0.08v15.34
	c-0.72,0.092-1.44,0.182-2.16,0.271c-0.38-3.73-0.75-7.45-1.21-12.03c-7.48,0-15.04,0.13-22.58-0.08c-2.17-0.06-4.3-1.08-6.45-1.66
	C111.819,21.838,113.939,20.738,116.08,20.688z M71.199,20.748h32.98c0.19,0.698,0.38,1.398,0.57,2.1
	c-1.29,0.45-2.58,1.26-3.88,1.28c-8.44,0.108-16.89,0.06-25.78,0.06c-0.31,4.29-0.57,8-0.84,11.79
	C70.739,34.788,70.029,30.918,71.199,20.748z M450.87,284.179H18.899V44.548c1.35-0.07,2.47-0.19,3.59-0.19
	c13.34-0.01,26.67-0.02,40,0.012c2,0.01,4.51-0.771,4.7,2.76c0.03,0.46,2.13,1.16,3.28,1.17c24.32,0.07,48.65,0.09,72.97-0.04
	c1.14,0,2.23-1.53,3.42-2.22c1.13-0.65,2.36-1.61,3.56-1.62c13.67-0.11,27.33-0.08,41-0.05c0.98,0,2.76,0.068,2.82,0.368
	c1.19,5.99,5.97,3.552,9.12,3.58c22.66,0.19,45.321,0.092,67.98-0.068c1.16,0,2.289-1.432,3.479-2.12c1.119-0.65,2.3-1.69,3.459-1.7
	c13.671-0.12,27.33-0.17,41,0.05c1.66,0.021,3.291,1.73,4.931,2.66l75.479,1.09c1.489-0.01,2.971-1.84,3.979-3.7h47.201V284.18
	L450.87,284.179L450.87,284.179z"/>
<path fill="#EC6851" d="M450.87,44.528v239.651H18.899V44.548c1.35-0.07,2.47-0.19,3.59-0.19c13.34-0.01,26.67-0.02,40,0.012
	c2,0.01,4.51-0.771,4.7,2.76c0.03,0.46,2.13,1.16,3.28,1.17c24.32,0.07,48.65,0.09,72.97-0.04c1.14,0,2.23-1.53,3.42-2.22
	c1.13-0.65,2.36-1.61,3.56-1.62c13.67-0.11,27.33-0.08,41-0.05c0.98,0,2.76,0.068,2.82,0.368c1.19,5.99,5.97,3.552,9.12,3.58
	c22.66,0.19,45.321,0.092,67.98-0.068c1.16,0,2.289-1.432,3.479-2.12c1.119-0.65,2.3-1.69,3.459-1.7c13.671-0.12,27.33-0.17,41,0.05
	c1.66,0.021,3.291,1.73,4.931,2.66l75.479,1.09c1.489-0.01,2.971-1.84,3.979-3.7L450.87,44.528L450.87,44.528z"/>
<path fill="#FFFFFF" stroke="#000000" stroke-width="2.6284" stroke-miterlimit="10" d="M100.038,212.863
	c0,0-1.038,10.595-3.451,11.625c-5.859-0.343-31.706,0-31.706,0s16.197-16.884,12.75-44.108c-4.134,25.501-8.27,32.052-12.75,37.909
	c-9.305-0.349-29.981,0.345-29.981,0.345s17.231-9.308,14.129-77.542c0.689-41.008,0-53.415,0-53.415h138.883
	c0,0,6.202,122.686-5.859,141.296c-18.609,0.342-27.225,0-27.225,0s13.096-14.819,7.238-47.903
	c-1.724,25.847-5.514,36.872-7.238,39.975c-14.818-0.341-29.981-0.341-29.981-0.341s11.027-17.578,7.926-44.458
	c-0.689,20.332-5.858,34.114-8.96,36.527c-5.859,0.348-32.74,0-32.74,0s10.339-5.856,13.096-28.258"/>
<g>
	<path fill="#EC6851" d="M97.523,134.052v7.08l-4.62,1.2h-0.12v8.398h-11.82v-8.398h-16.62c-1.72,0-3.04-0.63-3.96-1.892
		c-0.92-1.26-1.08-2.688-0.48-4.29l10.02-26.818h12l-8.4,23.22c-0.16,0.441-0.141,0.801,0.06,1.08c0.2,0.28,0.52,0.42,0.96,0.42
		h6.42v-10.2l2.1-6.358h9.72v16.56L97.523,134.052L97.523,134.052z"/>
	<path fill="#EC6851" d="M118.283,108.491c6.639,0,11.259,1.551,13.86,4.648c2.6,3.102,3.9,8.73,3.9,16.89
		c0,8.16-1.3,13.791-3.9,16.892c-2.601,3.101-7.221,4.648-13.86,4.648c-6.6,0-11.201-1.549-13.8-4.648
		c-2.601-3.101-3.9-8.73-3.9-16.892c0-8.158,1.299-13.788,3.9-16.89C107.083,110.042,111.683,108.491,118.283,108.491z
		 M118.223,118.152c-1.36,0-2.34,0.25-2.94,0.75c-0.6,0.5-1.05,1.581-1.35,3.24c-0.3,1.66-0.45,4.29-0.45,7.89
		c0,3.602,0.15,6.231,0.45,7.892c0.3,1.66,0.75,2.74,1.35,3.24c0.6,0.5,1.58,0.75,2.94,0.75c1.44,0,2.469-0.25,3.09-0.75
		c0.62-0.5,1.08-1.58,1.38-3.24c0.3-1.659,0.45-4.29,0.45-7.892c0-3.6-0.15-6.229-0.45-7.89c-0.3-1.66-0.76-2.74-1.38-3.24
		C120.692,118.402,119.663,118.152,118.223,118.152z"/>
	<path fill="#EC6851" d="M141.023,118.392l-0.36-8.76c4.719-0.759,9.56-1.14,14.52-1.14c5.359,0,9.099,0.699,11.22,2.1
		c2.12,1.401,3.18,3.921,3.18,7.56c0,3.28-0.48,5.75-1.44,7.41s-2.76,2.67-5.4,3.03v0.24c2.919,0.438,4.959,1.448,6.12,3.028
		c1.16,1.581,1.76,4.03,1.8,7.352c0.08,4.438-1.061,7.609-3.42,9.51c-2.361,1.9-6.36,2.85-12,2.85c-4.721,0-9.88-0.38-15.48-1.14
		l0.36-9.12c4.64,0.201,8.479,0.3,11.52,0.3c2.559,0,4.23-0.238,5.01-0.72c0.78-0.479,1.17-1.64,1.17-3.479
		c0-1.642-0.311-2.75-0.93-3.33c-0.621-0.58-1.851-0.852-3.69-0.812l-7.98,0.12v-7.92h7.98c1.839,0,3.009-0.27,3.51-0.81
		c0.5-0.54,0.75-1.512,0.75-2.91c0-1.359-0.31-2.259-0.93-2.7c-0.621-0.439-1.851-0.66-3.69-0.66H141.023L141.023,118.392z"/>
</g>
<g>
	<path d="M249.691,137.77l-8.22-3.6c-3.36-1.479-5.74-3.169-7.14-5.07c-1.4-1.899-2.1-4.37-2.1-7.41c0-4.64,1.26-7.83,3.78-9.57
		c2.52-1.74,6.939-2.61,13.26-2.61c6.039,0,11.06,0.701,15.061,2.1l-0.78,8.34c-4.8-0.08-9.66-0.12-14.58-0.12
		c-1.521,0-2.541,0.1-3.06,0.3c-0.521,0.201-0.78,0.621-0.78,1.26c0,0.561,0.249,1.03,0.75,1.41c0.499,0.381,1.449,0.851,2.85,1.41
		l7.5,3.12c3.399,1.48,5.8,3.18,7.2,5.1c1.399,1.92,2.1,4.42,2.1,7.5c0,4.68-1.221,7.96-3.659,9.84
		c-2.44,1.88-6.861,2.82-13.261,2.82c-5.399,0-10.739-0.681-16.02-2.04l0.78-9.12c7.92,0.201,12.939,0.3,15.06,0.3
		c1.64,0,2.73-0.099,3.27-0.3c0.54-0.2,0.811-0.58,0.811-1.14c0-0.56-0.19-1.02-0.57-1.38
		C251.561,138.55,250.811,138.171,249.691,137.77z"/>
	<path d="M285.392,120.91c6.12,0,10.439,1.19,12.96,3.57c2.52,2.38,3.779,6.49,3.779,12.33c0,5.76-1.26,9.81-3.779,12.15
		c-2.521,2.34-6.84,3.51-12.96,3.51c-6.161,0-10.5-1.17-13.021-3.51c-2.52-2.34-3.78-6.39-3.78-12.15c0-5.84,1.261-9.95,3.78-12.33
		C274.892,122.101,279.23,120.91,285.392,120.91z M285.392,129.43c-1.48,0-2.451,0.46-2.91,1.38c-0.461,0.92-0.69,2.92-0.69,6
		c0,2.96,0.229,4.89,0.69,5.79c0.459,0.9,1.43,1.35,2.91,1.35c1.439,0,2.39-0.45,2.85-1.35c0.459-0.9,0.69-2.83,0.69-5.79
		c0-3.08-0.231-5.08-0.69-6C287.781,129.89,286.831,129.43,285.392,129.43z"/>
	<path d="M330.69,120.91l-1.08,11.52h-3.18c-2.121,0-4.641,0.201-7.561,0.6v18.72h-12.6v-30h9.84l1.14,4.38
		c3.721-3.48,7.62-5.22,11.7-5.22H330.69z"/>
	<path d="M357.811,120.91l-1.08,11.52h-3.18c-2.121,0-4.641,0.201-7.561,0.6v18.72h-12.6v-30h9.84l1.14,4.38
		c3.721-3.48,7.62-5.22,11.7-5.22H357.811z"/>
	<path d="M394.17,121.75l-9.54,29.16c-0.36,1.2-0.801,2.34-1.32,3.42c-0.521,1.08-1.19,2.209-2.01,3.39
		c-0.82,1.179-1.74,2.18-2.76,3c-1.021,0.819-2.23,1.56-3.63,2.22c-1.401,0.66-2.94,1.02-4.62,1.08
		c-1.681,0.06-3.561-0.09-5.641-0.45l-0.84-6.78c2.359-0.48,4.22-1.101,5.58-1.86c1.359-0.76,2.439-1.821,3.24-3.18h-2.04
		c-2.04,0-3.36-0.979-3.96-2.94l-8.88-27.06h13.38l3.54,16.56c0.159,1.08,0.42,2.96,0.779,5.64h0.54c0.28-0.96,0.7-2.84,1.261-5.64
		l3.54-16.56H394.17z"/>
	<path d="M396.593,147.31h0.984c0.64,0,1.083,0.124,1.332,0.372c0.247,0.248,0.38,0.7,0.396,1.356v1.536
		c0,1.136-0.128,2.072-0.384,2.808s-0.664,1.488-1.224,2.256l-1.872-0.6c0.271-0.816,0.424-1.912,0.456-3.288
		c-0.944,0-1.433-0.512-1.465-1.536l0.072-1.176c0.016-0.656,0.145-1.108,0.384-1.356
		C395.513,147.434,395.953,147.31,396.593,147.31z"/>
	<path d="M232.04,177.006l-0.456-3.192c2.176-0.4,4.456-0.6,6.84-0.6c1.775,0,3.096,0.368,3.96,1.104s1.296,2,1.296,3.792v7.44
		h-4.008l-0.456-1.68c-1.057,1.344-2.44,2.016-4.152,2.016c-1.184,0-2.168-0.296-2.952-0.888c-0.784-0.592-1.176-1.432-1.176-2.52
		v-1.2c0-0.96,0.352-1.716,1.056-2.268c0.704-0.552,1.672-0.828,2.904-0.828h3.744v-0.096c-0.017-0.432-0.128-0.74-0.336-0.924
		c-0.208-0.184-0.568-0.276-1.08-0.276C235.464,176.886,233.735,176.926,232.04,177.006z M235.832,181.35v0.384
		c0,0.496,0.336,0.744,1.008,0.744c0.527,0,1.128-0.2,1.8-0.6v-1.272h-1.896C236.136,180.606,235.832,180.854,235.832,181.35z"/>
	<path d="M256.376,181.686l0.456,3.144c-1.28,0.672-3.024,1.008-5.232,1.008c-2.352,0-4.004-0.472-4.956-1.416
		c-0.952-0.944-1.428-2.576-1.428-4.896s0.479-3.952,1.44-4.896c0.96-0.944,2.623-1.416,4.991-1.416
		c2.112,0,3.784,0.296,5.017,0.888l-0.504,3.12h-3.648c-0.784,0-1.316,0.156-1.596,0.468c-0.28,0.312-0.42,0.924-0.42,1.836
		c0,0.928,0.14,1.548,0.42,1.86c0.279,0.312,0.812,0.468,1.596,0.468C254.08,181.854,255.368,181.798,256.376,181.686z"/>
	<path d="M268.928,181.686l0.456,3.144c-1.28,0.672-3.024,1.008-5.232,1.008c-2.352,0-4.004-0.472-4.956-1.416
		c-0.952-0.944-1.428-2.576-1.428-4.896s0.479-3.952,1.44-4.896c0.96-0.944,2.623-1.416,4.991-1.416
		c2.112,0,3.784,0.296,5.017,0.888l-0.504,3.12h-3.648c-0.784,0-1.316,0.156-1.596,0.468c-0.28,0.312-0.42,0.924-0.42,1.836
		c0,0.928,0.14,1.548,0.42,1.86c0.279,0.312,0.812,0.468,1.596,0.468C266.632,181.854,267.92,181.798,268.928,181.686z"/>
	<path d="M278.696,180.654h-3c0.096,0.496,0.292,0.84,0.588,1.032c0.296,0.192,0.764,0.288,1.404,0.288
		c1.567,0,3.191-0.087,4.872-0.264l0.456,3.024c-1.456,0.736-3.417,1.104-5.88,1.104c-2.448,0-4.2-0.508-5.257-1.524
		c-1.056-1.016-1.584-2.572-1.584-4.668c0-2.352,0.513-4.012,1.536-4.98c1.024-0.968,2.784-1.452,5.28-1.452
		c2.208,0,3.796,0.352,4.764,1.056s1.46,1.776,1.477,3.216c0.016,1.136-0.324,1.948-1.021,2.436
		C281.637,180.41,280.424,180.654,278.696,180.654z M275.601,178.278h1.68c0.544,0,0.888-0.052,1.032-0.156
		c0.144-0.104,0.216-0.355,0.216-0.756c0-0.368-0.092-0.612-0.276-0.732c-0.184-0.12-0.516-0.18-0.996-0.18
		c-0.64-0.016-1.067,0.088-1.283,0.312C275.756,176.99,275.632,177.494,275.601,178.278z"/>
	<path d="M290.216,181.374l-2.641-0.72c-1.232-0.352-2.063-0.84-2.496-1.464c-0.432-0.624-0.647-1.448-0.647-2.472
		c0-1.152,0.424-2.024,1.271-2.616c0.849-0.591,2.28-0.888,4.296-0.888c2.385,0,4.433,0.176,6.145,0.528l-0.313,2.928h-4.728
		c-0.864,0-1.38,0.012-1.548,0.036c-0.168,0.024-0.252,0.108-0.252,0.252c0,0.144,0.271,0.28,0.815,0.408
		c0.24,0.064,0.44,0.12,0.601,0.168l2.76,0.696c1.104,0.304,1.908,0.732,2.412,1.284c0.504,0.552,0.756,1.332,0.756,2.34
		c0,1.504-0.437,2.54-1.308,3.108c-0.873,0.568-2.373,0.852-4.5,0.852c-2.208,0-4.288-0.168-6.24-0.504l0.312-2.928h4.272
		c1.184,0,1.912-0.016,2.184-0.048c0.272-0.032,0.408-0.136,0.408-0.312c0-0.032-0.004-0.06-0.012-0.084
		c-0.009-0.024-0.024-0.048-0.048-0.072c-0.024-0.024-0.049-0.044-0.072-0.06c-0.024-0.016-0.061-0.036-0.108-0.06
		c-0.048-0.024-0.1-0.04-0.155-0.048c-0.057-0.008-0.129-0.028-0.217-0.06c-0.088-0.032-0.172-0.056-0.252-0.072
		c-0.08-0.016-0.184-0.044-0.312-0.084S290.344,181.406,290.216,181.374z"/>
	<path d="M303.488,181.374l-2.641-0.72c-1.232-0.352-2.063-0.84-2.496-1.464c-0.432-0.624-0.647-1.448-0.647-2.472
		c0-1.152,0.424-2.024,1.271-2.616c0.849-0.591,2.28-0.888,4.296-0.888c2.385,0,4.433,0.176,6.145,0.528l-0.313,2.928h-4.728
		c-0.864,0-1.38,0.012-1.548,0.036c-0.168,0.024-0.252,0.108-0.252,0.252c0,0.144,0.271,0.28,0.815,0.408
		c0.24,0.064,0.44,0.12,0.601,0.168l2.76,0.696c1.104,0.304,1.908,0.732,2.412,1.284c0.504,0.552,0.756,1.332,0.756,2.34
		c0,1.504-0.437,2.54-1.308,3.108c-0.873,0.568-2.373,0.852-4.5,0.852c-2.208,0-4.288-0.168-6.24-0.504l0.312-2.928h4.272
		c1.184,0,1.912-0.016,2.184-0.048c0.272-0.032,0.408-0.136,0.408-0.312c0-0.032-0.004-0.06-0.012-0.084
		c-0.009-0.024-0.024-0.048-0.048-0.072c-0.024-0.024-0.049-0.044-0.072-0.06c-0.024-0.016-0.061-0.036-0.108-0.06
		c-0.048-0.024-0.1-0.04-0.155-0.048c-0.057-0.008-0.129-0.028-0.217-0.06c-0.088-0.032-0.172-0.056-0.252-0.072
		c-0.08-0.016-0.184-0.044-0.312-0.084S303.616,181.406,303.488,181.374z"/>
	<path d="M329.287,168.75v16.8h-4.008l-0.408-1.968c-0.8,1.504-2.271,2.256-4.416,2.256c-1.52,0-2.624-0.544-3.312-1.632
		c-0.688-1.087-1.032-2.688-1.032-4.8c0-2.352,0.364-3.972,1.092-4.86c0.729-0.888,1.885-1.332,3.469-1.332
		c1.535,0,2.76,0.336,3.672,1.008c-0.064-1.12-0.097-1.992-0.097-2.616v-2.856H329.287z M324.247,181.446v-4.632
		c-0.527-0.208-1.048-0.312-1.56-0.312c-0.544,0-0.912,0.172-1.104,0.516c-0.191,0.344-0.287,1.125-0.287,2.34
		c0,1.04,0.092,1.708,0.275,2.004c0.184,0.296,0.532,0.444,1.044,0.444C323.224,181.806,323.768,181.686,324.247,181.446z"/>
	<path d="M339.319,180.654h-3c0.096,0.496,0.292,0.84,0.588,1.032c0.296,0.192,0.764,0.288,1.404,0.288
		c1.567,0,3.191-0.087,4.872-0.264l0.456,3.024c-1.456,0.736-3.417,1.104-5.88,1.104c-2.448,0-4.2-0.508-5.257-1.524
		c-1.056-1.016-1.584-2.572-1.584-4.668c0-2.352,0.513-4.012,1.536-4.98c1.024-0.968,2.784-1.452,5.28-1.452
		c2.208,0,3.796,0.352,4.764,1.056s1.46,1.776,1.477,3.216c0.016,1.136-0.324,1.948-1.021,2.436
		C342.26,180.41,341.047,180.654,339.319,180.654z M336.224,178.278h1.68c0.544,0,0.888-0.052,1.032-0.156
		c0.144-0.104,0.216-0.355,0.216-0.756c0-0.368-0.092-0.612-0.276-0.732c-0.184-0.12-0.516-0.18-0.996-0.18
		c-0.64-0.016-1.067,0.088-1.283,0.312C336.379,176.99,336.255,177.494,336.224,178.278z"/>
	<path d="M349.472,173.55l0.456,1.776c1.52-1.408,3.168-2.112,4.943-2.112c2.368,0,3.553,1.12,3.553,3.36v8.976h-5.04v-7.368
		c0-0.255-0.064-0.44-0.192-0.552s-0.352-0.168-0.672-0.168c-0.672,0-1.328,0.096-1.968,0.288v7.8h-5.04v-12H349.472z"/>
	<path d="M361.951,168.054h2.136c0.976,0,1.464,0.496,1.464,1.488v1.224c0,0.992-0.488,1.488-1.464,1.488h-2.136
		c-0.977,0-1.465-0.496-1.465-1.488v-1.224C360.486,168.55,360.975,168.054,361.951,168.054z M365.526,185.55h-5.016v-12h5.016
		V185.55z"/>
	<path d="M375.654,180.654h-3c0.096,0.496,0.292,0.84,0.588,1.032c0.296,0.192,0.764,0.288,1.404,0.288
		c1.567,0,3.191-0.087,4.872-0.264l0.456,3.024c-1.456,0.736-3.417,1.104-5.88,1.104c-2.448,0-4.2-0.508-5.257-1.524
		c-1.056-1.016-1.584-2.572-1.584-4.668c0-2.352,0.513-4.012,1.536-4.98c1.024-0.968,2.784-1.452,5.28-1.452
		c2.208,0,3.796,0.352,4.764,1.056s1.46,1.776,1.477,3.216c0.016,1.136-0.324,1.948-1.021,2.436
		C378.595,180.41,377.382,180.654,375.654,180.654z M372.559,178.278h1.68c0.544,0,0.888-0.052,1.032-0.156
		c0.144-0.104,0.216-0.355,0.216-0.756c0-0.368-0.092-0.612-0.276-0.732c-0.184-0.12-0.516-0.18-0.996-0.18
		c-0.64-0.016-1.067,0.088-1.283,0.312C372.714,176.99,372.59,177.494,372.559,178.278z"/>
	<path d="M394.662,168.75v16.8h-4.008l-0.408-1.968c-0.8,1.504-2.271,2.256-4.416,2.256c-1.52,0-2.624-0.544-3.312-1.632
		c-0.688-1.087-1.032-2.688-1.032-4.8c0-2.352,0.364-3.972,1.092-4.86c0.729-0.888,1.885-1.332,3.469-1.332
		c1.535,0,2.76,0.336,3.672,1.008c-0.064-1.12-0.097-1.992-0.097-2.616v-2.856H394.662z M389.622,181.446v-4.632
		c-0.527-0.208-1.048-0.312-1.56-0.312c-0.544,0-0.912,0.172-1.104,0.516c-0.191,0.344-0.287,1.125-0.287,2.34
		c0,1.04,0.092,1.708,0.275,2.004c0.184,0.296,0.532,0.444,1.044,0.444C388.599,181.806,389.143,181.686,389.622,181.446z"/>
	<path d="M402.126,174.486l-0.527,5.616h-3.937l-0.527-5.616v-5.616h4.991V174.486z M399.078,181.11h1.128
		c0.656,0,1.108,0.124,1.356,0.372s0.372,0.7,0.372,1.356v0.984c0,0.656-0.124,1.108-0.372,1.356
		c-0.248,0.249-0.7,0.372-1.356,0.372h-1.128c-0.656,0-1.108-0.124-1.355-0.372c-0.249-0.248-0.372-0.7-0.372-1.356v-0.984
		c0-0.656,0.123-1.108,0.372-1.356C397.97,181.234,398.422,181.11,399.078,181.11z"/>
</g>
</svg>
