<?xml version="1.0" encoding="utf-8"?>
<!-- Generator: Adobe Illustrator 16.0.0, SVG Export Plug-In . SVG Version: 6.00 Build 0)  -->
<!DOCTYPE svg PUBLIC "-//W3C//DTD SVG 1.1//EN" "http://www.w3.org/Graphics/SVG/1.1/DTD/svg11.dtd">
<svg version="1.1" id="Слой_1" xmlns="http://www.w3.org/2000/svg" xmlns:xlink="http://www.w3.org/1999/xlink" x="0px" y="0px"
	 width="469.5px" height="467.5px" viewBox="0 0 469.5 467.5" enable-background="new 0 0 469.5 467.5" xml:space="preserve">
<g id="Слой_1_1_">
	<path d="M402.789,36.228v-20H367.83c-1.62-8.9-1.69-8.95-8.98-7.28c-0.21,2.17-0.42,4.43-0.71,7.43H322.32v19.5h-47.17v-19.91
		h-35.621c-0.229-2.77-0.43-5.05-0.619-7.34h-8.02c-0.26,2.67-0.48,4.932-0.74,7.7h-35.78v19.59h-47.33v-19.72H111.6
		c-0.31-2.75-0.58-5.15-0.84-7.46c-7.33-1.102-7.33-1.102-8.9,7.63H66.91c0,5.69-0.18,10.67,0.06,15.62
		c0.17,3.51-1.07,4.57-4.56,4.53c-15.16-0.17-30.33-0.08-45.49-0.092h-6.04v256.3H46v166.672h20.67V292.726h151.88l182.521-0.31
		v166.65h20.67V292.378l36.881-0.061V36.228H402.789z M369.25,20.718c9.6-0.148,19.21-0.08,29.82-0.08
		c-0.25,5.37-0.49,10.41-0.723,15.45c-0.817,0.05-1.64,0.09-2.447,0.142c-0.461-3.71-0.923-7.42-1.49-12.062
		c-8.25,0-16.66,0.08-25.063-0.08c-1.33-0.02-2.64-1.08-3.96-1.66C366.669,21.828,367.95,20.728,369.25,20.718z M327.29,24.728
		c-0.21-2.312,0.22-4.19,3.42-4.142c8.96,0.142,17.93-0.02,26.89,0.11c0.95,0.01,1.88,1.12,2.83,1.72
		c-0.96,0.59-1.897,1.67-2.857,1.682c-7.803,0.148-15.61,0.078-23.41,0.108c-0.96,0-1.92,0.19-3.69,0.38v11.271
		c-0.62,0.108-1.229,0.22-1.85,0.33C325.639,32.988,327.629,28.558,327.29,24.728z M240.12,20.698
		c6.489-0.16,12.989-0.09,19.479-0.09h10.643v16.729c-4.44-4.238-2-8.938-3.771-13.148h-22.55c-1.33,0-2.71,0.198-3.979-0.08
		c-0.932-0.19-1.729-1.01-2.58-1.562C238.279,21.908,239.189,20.728,240.12,20.698z M199.259,20.637c10.6,0,20.42-0.05,30.24,0.08
		c0.98,0.012,1.94,1.08,2.91,1.66c-0.94,0.59-1.87,1.69-2.83,1.71c-6.83,0.15-13.66,0.08-20.49,0.08h-6.59
		c0,3.71,0.09,6.83-0.07,9.94c-0.03,0.68-0.97,1.33-1.49,1.99c-0.56-0.66-1.59-1.302-1.61-1.972
		C199.179,29.838,199.259,25.538,199.259,20.637z M116.08,20.688c8.6-0.2,17.2-0.08,26.01-0.08v15.34
		c-0.72,0.09-1.44,0.18-2.16,0.27c-0.38-3.729-0.75-7.448-1.21-12.028c-7.48,0-15.04,0.13-22.58-0.08
		c-2.17-0.062-4.3-1.08-6.45-1.66C111.819,21.838,113.939,20.738,116.08,20.688z M71.199,20.748h32.98c0.19,0.7,0.38,1.4,0.57,2.102
		c-1.29,0.448-2.58,1.26-3.88,1.278c-8.44,0.11-16.89,0.062-25.78,0.062c-0.31,4.29-0.57,8-0.84,11.79
		C70.739,34.788,70.029,30.918,71.199,20.748z M450.869,284.177H18.899V44.548c1.35-0.068,2.47-0.188,3.59-0.188
		c13.34-0.01,26.67-0.021,40,0.01c2,0.01,4.51-0.77,4.7,2.76c0.03,0.46,2.13,1.16,3.28,1.17c24.32,0.07,48.65,0.091,72.97-0.04
		c1.14,0,2.23-1.528,3.42-2.22c1.13-0.649,2.36-1.61,3.56-1.62c13.67-0.108,27.33-0.08,41-0.05c0.98,0,2.76,0.07,2.82,0.37
		c1.19,5.99,5.97,3.55,9.12,3.58c22.66,0.188,45.32,0.09,67.98-0.07c1.16,0,2.29-1.43,3.48-2.12c1.117-0.648,2.3-1.688,3.46-1.7
		c13.67-0.118,27.33-0.17,41,0.052c1.657,0.02,3.29,1.729,4.93,2.659l75.479,1.091c1.49-0.012,2.972-1.841,3.98-3.7h47.201V284.177
		L450.869,284.177z"/>
	<path fill="#EC6851" d="M450.869,44.528v239.649H18.899V44.548c1.35-0.068,2.47-0.188,3.59-0.188c13.34-0.01,26.67-0.021,40,0.01
		c2,0.01,4.51-0.77,4.7,2.76c0.03,0.46,2.13,1.16,3.28,1.17c24.32,0.07,48.65,0.091,72.97-0.04c1.14,0,2.23-1.528,3.42-2.22
		c1.13-0.649,2.36-1.61,3.56-1.62c13.67-0.108,27.33-0.08,41-0.05c0.98,0,2.76,0.07,2.82,0.37c1.19,5.99,5.97,3.55,9.12,3.58
		c22.66,0.188,45.32,0.09,67.98-0.07c1.16,0,2.29-1.43,3.48-2.12c1.117-0.648,2.3-1.688,3.46-1.7c13.67-0.118,27.33-0.17,41,0.052
		c1.657,0.02,3.29,1.729,4.93,2.659l75.479,1.091c1.49-0.012,2.972-1.841,3.98-3.7h47.201V44.528z"/>
</g>
<g id="Слой_2">
	<path fill="#FFFFFF" stroke="#000000" stroke-width="2.6284" stroke-miterlimit="10" d="M100.038,212.863
		c0,0-1.038,10.593-3.451,11.625c-5.859-0.343-31.706,0-31.706,0s16.197-16.884,12.75-44.11c-4.134,25.501-8.27,32.052-12.75,37.909
		c-9.305-0.347-29.981,0.345-29.981,0.345s17.231-9.308,14.129-77.542c0.689-41.008,0-53.415,0-53.415h138.883
		c0,0,6.202,122.688-5.859,141.296c-18.609,0.342-27.225,0-27.225,0s13.096-14.817,7.238-47.901
		c-1.724,25.845-5.514,36.872-7.238,39.973c-14.818-0.341-29.981-0.341-29.981-0.341s11.027-17.578,7.926-44.458
		c-0.689,20.332-5.858,34.116-8.96,36.529c-5.859,0.346-32.74,0-32.74,0s10.339-5.858,13.096-28.26"/>
	<g enable-background="new    ">
		<path fill="#EC6851" d="M85.673,149.457h-11.34l-2.1,8.94h-13.26l10.74-38.04c0.279-0.999,0.819-1.811,1.62-2.431
			c0.8-0.619,1.72-0.931,2.76-0.931h11.82c1.04,0,1.959,0.312,2.76,0.931c0.799,0.62,1.339,1.432,1.62,2.431l10.74,38.04h-13.26
			L85.673,149.457z M83.573,140.338l-2.04-8.881c-0.36-1.879-0.6-3.459-0.72-4.739h-1.62c-0.24,1.881-0.48,3.46-0.72,4.739
			l-2.04,8.881H83.573z"/>
		<path fill="#EC6851" d="M103.613,158.397v-41.4c7.04-0.398,12.939-0.6,17.7-0.6c4.92,0,8.73,0.609,11.43,1.83
			c2.7,1.221,4.689,3.359,5.97,6.42c1.279,3.06,1.92,7.41,1.92,13.05c0,5.641-0.641,9.99-1.92,13.05
			c-1.281,3.062-3.27,5.201-5.97,6.42c-2.7,1.221-6.51,1.83-11.43,1.83C115.313,158.997,109.414,158.797,103.613,158.397z
			 M116.633,149.517l4.68,0.06c2.24,0,3.729-0.789,4.47-2.37c0.74-1.579,1.11-4.749,1.11-9.51c0-4.76-0.37-7.929-1.11-9.51
			c-0.741-1.58-2.23-2.37-4.47-2.37h-4.68V149.517z"/>
		<path fill="#EC6851" d="M161.813,144.417l-8.22-3.6c-3.36-1.479-5.74-3.17-7.14-5.07c-1.4-1.898-2.1-4.369-2.1-7.409
			c0-4.64,1.26-7.83,3.78-9.569c2.52-1.74,6.939-2.61,13.26-2.61c6.04,0,11.06,0.7,15.06,2.101l-0.78,8.341
			c-4.8-0.08-9.66-0.12-14.58-0.12c-1.521,0-2.541,0.101-3.06,0.3c-0.521,0.201-0.78,0.621-0.78,1.26c0,0.562,0.249,1.03,0.75,1.41
			c0.5,0.381,1.449,0.851,2.85,1.41l7.5,3.12c3.399,1.479,5.8,3.18,7.2,5.1c1.4,1.92,2.1,4.421,2.1,7.5
			c0,4.681-1.221,7.961-3.66,9.84c-2.44,1.881-6.86,2.82-13.26,2.82c-5.4,0-10.74-0.681-16.02-2.04l0.78-9.12
			c7.92,0.201,12.939,0.301,15.06,0.301c1.64,0,2.73-0.1,3.27-0.301c0.54-0.199,0.81-0.579,0.81-1.14s-0.19-1.021-0.57-1.38
			C163.683,145.197,162.933,144.817,161.813,144.417z"/>
	</g>
	<g enable-background="new    ">
		<path d="M245.22,136.737v0.36c3.199,0.279,5.489,1.318,6.869,3.119c1.381,1.801,2.07,4.42,2.07,7.859
			c0,4.121-1.15,6.951-3.45,8.49c-2.3,1.54-6.149,2.311-11.55,2.311c-8.76,0-15.38-0.161-19.86-0.479v-41.4
			c4.08-0.319,10.04-0.479,17.879-0.479c5.882,0,9.95,0.75,12.212,2.25c2.258,1.5,3.389,4.35,3.389,8.55c0,3-0.59,5.261-1.771,6.78
			C249.83,135.618,247.898,136.497,245.22,136.737z M232.02,133.137h4.621c1.521,0,2.521-0.26,3-0.779
			c0.479-0.521,0.721-1.58,0.721-3.181c0-1.6-0.252-2.641-0.75-3.119c-0.502-0.48-1.53-0.721-3.092-0.721h-4.5V133.137z
			 M232.02,150.057h4.8c1.8,0,2.979-0.301,3.539-0.9s0.84-1.839,0.84-3.72c0-1.92-0.279-3.181-0.84-3.78
			c-0.562-0.6-1.76-0.899-3.601-0.899h-4.74L232.02,150.057L232.02,150.057z"/>
		<path d="M276.958,116.157c4.92,0,8.729,0.61,11.43,1.83c2.701,1.221,4.689,3.381,5.972,6.479c1.278,3.101,1.92,7.511,1.92,13.229
			c0,5.721-0.642,10.131-1.92,13.229c-1.281,3.101-3.271,5.261-5.972,6.479c-2.699,1.22-6.51,1.83-11.43,1.83
			c-4.881,0-8.67-0.61-11.369-1.83c-2.701-1.22-4.691-3.38-5.971-6.479c-1.28-3.1-1.92-7.51-1.92-13.229s0.64-10.13,1.92-13.229
			c1.278-3.1,3.27-5.26,5.971-6.479C268.289,116.767,272.078,116.157,276.958,116.157z M281.429,128.187
			c-0.741-1.58-2.229-2.37-4.471-2.37s-3.73,0.79-4.47,2.37c-0.741,1.581-1.11,4.75-1.11,9.51c0,4.761,0.369,7.931,1.11,9.51
			c0.738,1.581,2.229,2.37,4.47,2.37s3.729-0.789,4.471-2.37c0.739-1.579,1.109-4.749,1.109-9.51
			C282.539,132.937,282.168,129.768,281.429,128.187z"/>
		<path d="M323.878,149.457h-11.34l-2.101,8.94h-13.261l10.74-38.04c0.279-0.999,0.819-1.811,1.62-2.431
			c0.799-0.619,1.719-0.931,2.76-0.931h11.82c1.039,0,1.959,0.312,2.76,0.931c0.799,0.62,1.34,1.432,1.619,2.431l10.74,38.04
			h-13.261L323.878,149.457z M321.779,140.338l-2.041-8.881c-0.359-1.879-0.601-3.459-0.721-4.739h-1.619
			c-0.24,1.881-0.479,3.46-0.721,4.739l-2.04,8.881H321.779z"/>
		<path d="M378.478,158.397H364.86l-2.701-12.301c-0.239-1.118-0.609-1.868-1.109-2.25c-0.5-0.38-1.311-0.569-2.43-0.569h-4.021
			v15.12h-12.779v-41.4c4.079-0.399,9.938-0.6,17.579-0.6c6.24,0,10.712,0.921,13.41,2.76c2.7,1.841,4.052,5.121,4.052,9.84
			c0,6-2.802,9.28-8.4,9.841v0.359c3.76,0.479,6.02,2.641,6.779,6.479L378.478,158.397z M354.598,134.097h4.5
			c1.88,0,3.13-0.279,3.75-0.841c0.62-0.56,0.932-1.699,0.932-3.42c0-1.72-0.312-2.858-0.932-3.421c-0.62-0.56-1.87-0.84-3.75-0.84
			h-4.5V134.097z"/>
		<path d="M382.378,158.397v-41.4c7.039-0.398,12.939-0.6,17.699-0.6c4.92,0,8.729,0.609,11.43,1.83s4.689,3.359,5.971,6.42
			c1.279,3.06,1.92,7.41,1.92,13.05c0,5.641-0.641,9.99-1.92,13.05c-1.281,3.062-3.27,5.201-5.971,6.42
			c-2.699,1.221-6.51,1.83-11.43,1.83C394.078,158.997,388.177,158.797,382.378,158.397z M395.398,149.517l4.681,0.06
			c2.24,0,3.728-0.789,4.47-2.37c0.74-1.579,1.109-4.749,1.109-9.51c0-4.76-0.369-7.929-1.109-9.51c-0.74-1.58-2.229-2.37-4.47-2.37
			h-4.681V149.517z"/>
	</g>
</g>
</svg>
